Coordinates
version=1
nRows=14
nColumns=24
inDegrees=yes

Units are S.I. units (second, meters, Newtons, ...)
Angles are in degrees.

endheader
time	pelvis_tilt	pelvis_list	pelvis_rotation	pelvis_tx	pelvis_ty	pelvis_tz	hip_flexion_r	hip_adduction_r	hip_rotation_r	knee_angle_r	ankle_angle_r	subtalar_angle_r	mtp_angle_r	hip_flexion_l	hip_adduction_l	hip_rotation_l	knee_angle_l	ankle_angle_l	subtalar_angle_l	mtp_angle_l	lumbar_extension	lumbar_bending	lumbar_rotation
      4.74500000	     35.71852120	      5.53577716	      9.40796792	      0.51391897	      0.67393198	     -0.22329517	    -31.22903795	      2.29937456	    -10.47760904	    -14.43372907	     19.89859436	      5.35099581	      0.00000000	    -24.24867200	     -5.07176070	     -2.37063801	    -68.71799500	      3.76192631	     -1.32763714	      0.00000000	    -61.91952127	      3.17388385	      0.08389463
      4.75000000	     35.60375739	      5.60872022	      8.98825385	      0.51987423	      0.67471817	     -0.22293838	    -32.04766078	      2.14285147	    -10.37963481	    -13.65788811	     19.86447853	      5.56958778	      0.00000000	    -23.26484742	     -4.56255560	     -2.89985413	    -68.60525586	      4.57843494	     -0.94499175	      0.00000000	    -61.88333043	      2.80511886	      0.28054709
      4.75500000	     35.55370454	      5.62943201	      8.48444954	      0.52580651	      0.67543805	     -0.22259944	    -32.89579105	      1.98208248	    -10.18128719	    -12.92833866	     19.87388059	      5.82109343	      0.00000000	    -22.39576174	     -4.08790498	     -3.53854295	    -68.36677701	      5.39462368	     -0.58047431	      0.00000000	    -61.91218599	      2.44184779	      0.57760106
      4.76000000	     35.40541833	      5.74328623	      8.12745709	      0.53168255	      0.67605509	     -0.22228410	    -33.64454709	      1.80539472	    -10.14081671	    -12.21730414	     19.81066068	      5.94460450	      0.00000000	    -21.38122974	     -3.58012250	     -4.00053686	    -68.08162134	      6.08462640	     -0.18173417	      0.00000000	    -61.87243760	      2.09467804	      0.68188947
      4.76500000	     35.28170493	      5.82056839	      7.75997577	      0.53751405	      0.67656402	     -0.22201270	    -34.38329605	      1.64722890	    -10.10067830	    -11.55508026	     19.78932561	      6.11302495	      0.00000000	    -20.40780974	     -3.11575266	     -4.49463385	    -67.71649159	      6.78922633	      0.21884061	      0.00000000	    -61.85120024	      1.77862611	      0.81472195
      4.77000000	     35.16162140	      5.89419526	      7.40210934	      0.54331292	      0.67699200	     -0.22175333	    -35.10212246	      1.49232378	    -10.06718670	    -10.93126340	     19.77577329	      6.26638873	      0.00000000	    -19.45468622	     -2.67183764	     -4.98825405	    -67.25291465	      7.44903474	      0.59235074	      0.00000000	    -61.84863048	      1.47356437	      0.94717383
      4.77500000	     35.05108397	      5.95936098	      7.04896560	      0.54907148	      0.67733637	     -0.22150448	    -35.80451196	      1.34311311	    -10.04291135	    -10.34930561	     19.78125789	      6.41385123	      0.00000000	    -18.52804062	     -2.25142126	     -5.48345532	    -66.69577579	      8.06580927	      0.95568613	      0.00000000	    -61.86260376	      1.18062648	      1.07541910
      4.78000000	     35.06217916	      5.97316217	      6.55630661	      0.55483223	      0.67766648	     -0.22120658	    -36.60237590	      1.16109142	     -9.92654349	     -9.80672569	     19.85259835	      6.63535638	      0.00000000	    -17.80958251	     -1.86854618	     -6.14395465	    -65.97355434	      8.65702632	      1.26615969	      0.00000000	    -61.98942135	      0.85062532	      1.32362936
      4.78500000	     34.91186087	      6.05235355	      6.30678368	      0.56051130	      0.67781872	     -0.22101560	    -37.22540243	      1.05074674	     -9.97957264	     -9.29585087	     19.83274830	      6.68059264	      0.00000000	    -16.84693870	     -1.48390502	     -6.53150825	    -65.26018704	      9.15621709	      1.57450409	      0.00000000	    -61.98803791	      0.61022410	      1.38377044
      4.79000000	     34.80352992	      6.09641650	      5.99656518	      0.56622076	      0.67790886	     -0.22080080	    -37.86965797	      0.93134991	    -10.03769044	     -8.82136132	     19.92000623	      6.83547908	      0.00000000	    -15.98806598	     -1.14601953	     -7.01329327	    -64.41276327	      9.64629147	      1.91690100	      0.00000000	    -62.01420194	      0.37270548	      1.47108238
      4.79500000	     34.72784703	      6.12785067	      5.68548054	      0.57187791	      0.67793686	     -0.22061725	    -38.52568942	      0.81877898	    -10.08748547	     -8.38323874	     19.98799388	      6.99800549	      0.00000000	    -15.19246815	     -0.82296372	     -7.48772196	    -63.45869056	     10.10073154	      2.17002909	      0.00000000	    -62.08393777	      0.14822218	      1.59308048
      4.80000000	     34.65059749	      6.15573921	      5.39451267	      0.57749333	      0.67788713	     -0.22040549	    -39.16101281	      0.72132307	    -10.16486389	     -7.97620785	     20.05534769	      7.15104077	      0.00000000	    -14.41496544	     -0.52658053	     -7.94060984	    -62.41252116	     10.50704567	      2.41560937	      0.00000000	    -62.17178930	     -0.08999160	      1.70883020
      4.80500000	     34.55435226	      6.18108443	      5.14995531	      0.58311252	      0.67775970	     -0.22027839	    -39.76353526	      0.64497775	    -10.28794200	     -7.60398406	     20.10352149	      7.27873565	      0.00000000	    -13.64820326	     -0.24965263	     -8.36653220	    -61.26291558	     10.88127816	      2.63436430	      0.00000000	    -62.23419802	     -0.26976579	      1.83242160
      4.81000000	     34.49891574	      6.18756544	      4.87596303	      0.58872312	      0.67756086	     -0.22007913	    -40.40461788	      0.57363626	    -10.39411322	     -7.23265876	     20.21833834	      7.48039689	      0.00000000	    -12.96553229	     -0.01148190	     -8.83468043	    -60.00991275	     11.22086448	      2.83544363	      0.00000000	    -62.34549471	     -0.48222646	      1.96107527
